<svg width="711" height="960" viewBox="0 0 711 960" fill="none" xmlns="http://www.w3.org/2000/svg">
<path d="M33.6735 0H713V921.785L665.782 945.495C660.423 948.186 654.865 950.462 649.158 952.303L641.587 954.744C621.007 961.381 598.775 960.772 578.589 953.02V953.02C572.56 950.705 566.784 947.779 561.35 944.287L549.238 936.504C534.018 926.724 519.978 915.22 507.397 902.219L494.488 888.878L459.351 852.403L425.677 814.343L383.951 751.701L355.036 693.024L352.865 689.794C334.115 661.898 312.384 636.128 288.055 612.938V612.938V612.938C257.121 584.179 223.81 558.088 188.479 534.944L164.707 519.371L127.926 491.609C106.656 475.555 87.4689 456.913 70.8088 436.114L68.4757 433.202C57.9841 420.104 48.6937 406.087 40.7171 391.322V391.322C29.4785 370.519 20.9255 348.374 15.2632 325.418L10.9804 308.055L8.30371 291.528C2.77683 257.404 0 222.891 0 188.322V188.322V188.322C0 156.148 3.03837 124.045 9.07467 92.4427L10.9804 82.4651L33.6735 0Z" fill="#B1DDF1"/>
</svg>
