<svg width="124" height="122" viewBox="0 0 124 122" fill="none" xmlns="http://www.w3.org/2000/svg">
<path d="M42.0855 19.3006C38.2071 21.2037 36.1257 22.4295 33.4761 24.3719C19.9059 34.3011 12.4598 50.3934 13.9804 66.505C14.5718 72.7773 16.5481 78.9826 19.7051 84.4861C24.0681 92.0949 30.7279 98.3144 38.7849 102.316C40.5547 103.192 44.4368 104.719 46.223 105.253C49.6285 106.254 52.5638 106.803 56.1106 107.1C61.3588 107.539 66.4562 107.155 71.5732 105.935C74.21 105.317 75.4813 104.904 78.6044 103.657C81.6771 102.43 83.051 101.775 85.3367 100.446C94.1137 95.2973 100.973 87.7769 105.128 78.6992C106.998 74.6391 108.114 70.855 108.902 66.0046L108.99 65.4329L104.945 67.0329L100.911 68.629L96.7044 57.9957L92.4982 47.3624L99.1253 44.7409L105.742 42.1233L105.173 40.8616C103.344 36.8564 100.349 32.4404 97.1772 29.1115L96.537 28.4368L96.4058 28.8129C96.2009 29.3859 95.3482 30.6511 94.7519 31.267C93.6311 32.4147 93.0401 32.7491 90.0432 33.9905L87.3086 35.1281L88.8535 39.0335L90.3983 42.9388L87.6244 44.0361L84.8505 45.1333L80.5487 34.2584L76.2468 23.3834L80.5337 21.6876C82.8941 20.7539 84.8092 19.9628 84.7901 19.9145C84.7748 19.8758 83.9374 19.4692 82.9369 19.0042C77.7649 16.6343 71.9371 15.1722 66.1589 14.8084C60.5587 14.4525 55.0491 15.0333 49.5178 16.5618C48.1933 16.9292 43.0598 18.8146 42.0855 19.3006ZM40.7015 37.3883C43.0812 36.9165 45.5634 37.1755 47.6365 38.1106C49.1378 38.78 50.2102 39.5743 51.3692 40.8822L51.8789 41.4631L48.8542 42.6931C46.0981 43.8057 45.8017 43.9118 45.6536 43.8027C44.5457 42.9777 43.1626 42.5187 41.9696 42.5993C41.1818 42.6426 39.3721 43.2579 38.6503 43.7335C36.8099 44.9198 35.7998 47.3205 36.1669 49.6347C36.3399 50.6618 37.0474 52.4502 37.62 53.308C38.1558 54.1022 39.2606 55.0962 40.0664 55.4817C40.8241 55.8639 41.8817 56.0604 42.8879 56.0089C43.5634 55.9765 43.8851 55.9051 44.8131 55.538C46.8406 54.736 48.0466 53.4205 48.4011 51.6034L48.5487 50.8854L51.605 49.6764L54.6613 48.4674L54.7089 49.0299C54.7647 49.7904 54.6211 51.58 54.4394 52.3002C54.2378 53.1178 53.5705 54.6451 53.0834 55.4191C50.8001 59.0836 45.9388 61.5096 41.222 61.352C39.4729 61.2949 37.0722 60.5341 35.6242 59.5866C33.29 58.0504 31.4597 55.4878 30.6385 52.6154C29.5805 48.9087 30.161 45.3924 32.3019 42.4885C33.4666 40.921 34.7053 39.8944 36.8664 38.693C37.4372 38.3666 39.8271 37.5665 40.7015 37.3883ZM65.6701 27.7573C66.0668 28.1705 82.2944 46.0439 82.3097 46.0826C82.3211 46.1116 81.0036 46.6439 79.3758 47.2767L76.429 48.4088L75.0176 46.7872L73.6062 45.1655L69.3798 46.8374L65.1634 48.5053L65.2333 50.6576L65.3031 52.8099L62.4095 53.9881C59.6735 55.0927 59.5083 55.1469 59.4875 54.9763C59.4781 54.8347 59.1056 31.9527 59.0924 30.4152L59.099 30.1666L62.3167 28.8938C65.2823 27.7207 65.5383 27.6306 65.6701 27.7573ZM44.3231 66.0951C46.6465 65.4219 48.6025 65.4419 50.3653 66.1531C51.8221 66.7395 52.8066 67.6357 53.6911 69.1639L53.916 69.5557L50.9404 70.7327L47.9647 71.9098L47.8768 71.6875C47.7391 71.3395 46.94 70.7054 46.5116 70.5954C45.5725 70.3743 44.1736 70.76 43.4981 71.4409L43.137 71.7961L42.2422 69.5341L41.3474 67.2721L41.9676 66.9821C42.3029 66.8271 42.7189 66.6402 42.8866 66.5627C43.0542 66.4852 43.705 66.2725 44.3231 66.0951ZM63.1836 66.974C65.7988 73.4967 65.9911 73.9237 66.3423 74.3102C66.8861 74.8888 67.3709 75.2001 68.0258 75.4106C68.8816 75.6869 69.5518 75.6118 70.9136 75.0732C72.0231 74.6342 72.0962 74.583 72.6232 74.028C73.4873 73.116 73.7686 71.9986 73.4909 70.6775C73.4253 70.3345 72.2382 67.2156 70.7774 63.5229L68.1887 56.9786L70.9121 55.9013L73.6356 54.8239L76.2435 61.4166C79.0502 68.5119 79.289 69.2335 79.3718 70.7994C79.6019 74.9789 76.7152 78.6808 71.9921 80.2473C67.4645 81.7477 63.6647 80.6348 61.1439 77.0932C60.7263 76.5094 60.3811 75.6957 57.8232 69.318L54.9647 62.2097L57.6882 61.1323L60.4116 60.055L63.1836 66.974ZM86.218 59.7962L89.6212 68.3995L93.1516 67.003L96.6821 65.6064L97.4851 67.6364L98.2881 69.6664L92.0342 72.1403L85.7803 74.6142L81.574 63.9809L77.3678 53.3476L80.0912 52.2703L82.8147 51.1929L86.218 59.7962ZM46.5486 74.8177C46.8971 74.814 47.8251 74.7711 48.6128 74.7278C50.5974 74.6135 52.4689 74.6557 53.3067 74.8274C54.8509 75.1332 56.2329 75.9728 56.9995 77.0557C57.4856 77.7243 58.0199 79.1339 58.1063 79.9717C58.2383 81.1604 58.0669 82.2902 57.5683 83.3594C56.8832 84.8713 55.9829 85.8982 54.3519 87.0241C53.6541 87.5014 51.0343 88.6048 50.2809 88.7351L49.867 88.8094L48.9302 86.4411L47.9933 84.0728L48.418 84.1731C48.6391 84.2309 49.0168 84.2716 49.2391 84.2731C49.7378 84.2658 50.9281 83.795 51.438 83.4032C51.9518 83.0211 52.3404 82.2637 52.2943 81.7342C52.1628 79.9863 50.8058 79.4164 47.4683 79.7081L46.307 79.8098L45.2975 77.2578L44.2918 74.7155L45.1039 74.7631C45.5498 74.7992 46.2001 74.8214 46.5486 74.8177Z" fill="black"/>
<path d="M64.8 39.359L64.9907 43.8223L67.7545 42.729C69.2777 42.1265 70.5069 41.6067 70.4916 41.5681C70.4534 41.4714 64.8916 35.1082 64.7396 34.9894C64.6687 34.928 64.6875 36.5975 64.8 39.359Z" fill="black"/>
<path d="M84.5441 28.1391L85.6187 30.8555L87.5755 30.0814C89.0785 29.4869 89.618 29.2287 89.9088 28.9907C90.5721 28.4265 90.8393 27.9519 90.9049 27.2328C91.0362 25.8841 90.0884 24.3138 88.9585 24.0229C88.0877 23.7973 87.6435 23.8835 85.4821 24.6714L83.4696 25.4228L84.5441 28.1391Z" fill="black"/>
<path d="M100.431 51.491L101.272 53.6177L104.843 52.2052C108.161 50.8924 108.42 50.779 108.405 50.5947C108.385 50.2785 107.871 48.2124 107.567 47.2371L107.286 46.3199L103.433 47.8441L99.5895 49.3644L100.431 51.491Z" fill="black"/>
<path d="M103.777 59.9493L104.675 62.221L107.026 61.2913L109.366 60.3656L109.338 59.0573C109.318 57.914 109.193 55.3585 109.147 55.2425C109.14 55.2231 107.73 55.7584 106.005 56.4407L102.878 57.6777L103.777 59.9493Z" fill="black"/>
</svg>
