<svg width="204" height="36" viewBox="0 0 204 36" fill="none" xmlns="http://www.w3.org/2000/svg">
<mask id="path-1-outside-1_80_7" maskUnits="userSpaceOnUse" x="-1" y="-1" width="206" height="38" fill="black">
<rect fill="white" x="-1" y="-1" width="206" height="38"/>
<path d="M26.8 32.435C26.35 32.765 25.645 33.17 24.685 33.65C23.725 34.13 22.585 34.55 21.265 34.91C19.945 35.24 18.505 35.39 16.945 35.36C14.365 35.33 12.055 34.88 10.015 34.01C8.005 33.11 6.28 31.91 4.84 30.41C3.43 28.88 2.35 27.14 1.6 25.19C0.85 23.21 0.475 21.095 0.475 18.845C0.475 16.385 0.865 14.12 1.645 12.05C2.455 9.98 3.565 8.18 4.975 6.65C6.415 5.12 8.125 3.935 10.105 3.095C12.085 2.255 14.245 1.835 16.585 1.835C18.655 1.835 20.515 2.12 22.165 2.69C23.815 3.26 25.195 3.89 26.305 4.58L24.19 9.575C23.35 8.975 22.3 8.39 21.04 7.82C19.78 7.25 18.355 6.965 16.765 6.965C14.845 6.965 13.06 7.49 11.41 8.54C9.79 9.56 8.485 10.94 7.495 12.68C6.505 14.42 6.01 16.385 6.01 18.575C6.01 20.825 6.46 22.835 7.36 24.605C8.26 26.345 9.535 27.725 11.185 28.745C12.865 29.735 14.815 30.23 17.035 30.23C18.745 30.23 20.23 29.975 21.49 29.465C22.78 28.925 23.8 28.325 24.55 27.665L26.8 32.435ZM30.3241 35L44.8591 0.889999H45.1741L59.7091 35H53.5441L43.4191 9.215L47.2441 6.65L35.5891 35H30.3241ZM39.5041 22.85H50.6191L52.4641 27.395H37.8841L39.5041 22.85ZM74.5689 2.195C78.3189 2.195 81.2439 3.14 83.3439 5.03C85.4439 6.89 86.4939 9.47 86.4939 12.77C86.4939 14.09 86.2839 15.395 85.8639 16.685C85.4739 17.975 84.8439 19.16 83.9739 20.24C83.1339 21.29 81.9939 22.13 80.5539 22.76C79.1439 23.39 77.4039 23.705 75.3339 23.705H70.5639V35H65.2539V2.195H74.5689ZM75.2889 18.53C76.4289 18.53 77.3889 18.335 78.1689 17.945C78.9489 17.555 79.5489 17.075 79.9689 16.505C80.4189 15.905 80.7339 15.275 80.9139 14.615C81.0939 13.955 81.1839 13.385 81.1839 12.905C81.1839 12.395 81.0939 11.825 80.9139 11.195C80.7639 10.535 80.4789 9.92 80.0589 9.35C79.6389 8.78 79.0539 8.3 78.3039 7.91C77.5539 7.52 76.6089 7.325 75.4689 7.325H70.5639V18.53H75.2889ZM110.087 8.99C108.887 8.36 107.627 7.835 106.307 7.415C105.017 6.965 103.772 6.74 102.572 6.74C100.952 6.74 99.6766 7.1 98.7466 7.82C97.8166 8.51 97.3516 9.5 97.3516 10.79C97.3516 11.66 97.6666 12.425 98.2966 13.085C98.9566 13.745 99.7966 14.33 100.817 14.84C101.837 15.35 102.917 15.815 104.057 16.235C105.377 16.715 106.652 17.33 107.882 18.08C109.142 18.8 110.162 19.79 110.942 21.05C111.752 22.28 112.157 23.93 112.157 26C112.157 27.71 111.722 29.285 110.852 30.725C109.982 32.135 108.737 33.26 107.117 34.1C105.497 34.94 103.517 35.36 101.177 35.36C99.1666 35.36 97.2016 35.045 95.2816 34.415C93.3916 33.755 91.6966 32.915 90.1966 31.895L92.5816 27.71C93.6616 28.52 94.9516 29.225 96.4516 29.825C97.9816 30.395 99.3916 30.68 100.682 30.68C101.642 30.68 102.572 30.53 103.472 30.23C104.372 29.93 105.122 29.435 105.722 28.745C106.322 28.055 106.622 27.14 106.622 26C106.622 25.1 106.352 24.32 105.812 23.66C105.302 23 104.612 22.43 103.742 21.95C102.902 21.47 101.987 21.035 100.997 20.645C99.9766 20.255 98.9266 19.82 97.8466 19.34C96.7966 18.86 95.8216 18.275 94.9216 17.585C94.0216 16.865 93.2866 15.995 92.7166 14.975C92.1466 13.925 91.8616 12.665 91.8616 11.195C91.8616 9.365 92.2816 7.79 93.1216 6.47C93.9616 5.12 95.1316 4.07 96.6316 3.32C98.1316 2.54 99.8416 2.105 101.762 2.015C104.102 2.015 106.082 2.3 107.702 2.87C109.352 3.44 110.807 4.115 112.067 4.895L110.087 8.99ZM123.813 23.165C123.813 24.425 124.143 25.595 124.803 26.675C125.463 27.725 126.348 28.58 127.458 29.24C128.598 29.87 129.843 30.185 131.193 30.185C132.663 30.185 133.953 29.87 135.063 29.24C136.203 28.58 137.103 27.725 137.763 26.675C138.423 25.595 138.753 24.425 138.753 23.165V2.195H143.973V23.3C143.973 25.67 143.403 27.77 142.263 29.6C141.123 31.4 139.578 32.81 137.628 33.83C135.708 34.85 133.563 35.36 131.193 35.36C128.853 35.36 126.708 34.85 124.758 33.83C122.838 32.81 121.308 31.4 120.168 29.6C119.058 27.77 118.503 25.67 118.503 23.3V2.195H123.813V23.165ZM152.441 2.195H157.751V29.87H173.861V35H152.441V2.195ZM180.786 2.195H202.566V7.325H186.096V15.965H200.766V21.095H186.096V29.87H203.196V35H180.786V2.195Z"/>
</mask>
<path d="M26.8 32.435L27.3914 33.2414L28.0561 32.7539L27.7044 32.0084L26.8 32.435ZM24.685 33.65L25.1322 34.5444L25.1322 34.5444L24.685 33.65ZM21.265 34.91L21.5075 35.8801L21.5179 35.8776L21.5281 35.8748L21.265 34.91ZM16.945 35.36L16.9642 34.3602L16.9566 34.3601L16.945 35.36ZM10.015 34.01L9.60634 34.9227L9.61449 34.9263L9.62271 34.9298L10.015 34.01ZM4.84 30.41L4.10464 31.0877L4.11155 31.0952L4.11861 31.1025L4.84 30.41ZM1.6 25.19L0.664829 25.5442L0.666655 25.549L1.6 25.19ZM1.645 12.05L0.713683 11.6856L0.709229 11.6974L1.645 12.05ZM4.975 6.65L4.24676 5.96459L4.23964 5.97232L4.975 6.65ZM10.105 3.095L10.4956 4.01558L10.4956 4.01558L10.105 3.095ZM22.165 2.69L21.8385 3.63519L21.8385 3.63519L22.165 2.69ZM26.305 4.58L27.2259 4.96991L27.5594 4.18227L26.8329 3.73071L26.305 4.58ZM24.19 9.575L23.6088 10.3887L24.6243 11.1141L25.1109 9.96491L24.19 9.575ZM11.41 8.54L11.9428 9.38624L11.9469 9.38366L11.41 8.54ZM7.36 24.605L6.46859 25.0583L6.47178 25.0644L7.36 24.605ZM11.185 28.745L10.6592 29.5956L10.6682 29.6012L10.6773 29.6065L11.185 28.745ZM21.49 29.465L21.8652 30.392L21.8761 30.3874L21.49 29.465ZM24.55 27.665L25.4544 27.2384L24.8873 26.0361L23.8894 26.9143L24.55 27.665ZM26.2086 31.6286C25.8284 31.9074 25.1844 32.2823 24.2378 32.7556L25.1322 34.5444C26.1056 34.0577 26.8716 33.6226 27.3914 33.2414L26.2086 31.6286ZM24.2378 32.7556C23.3502 33.1994 22.2747 33.5981 21.0019 33.9452L21.5281 35.8748C22.8953 35.5019 24.0998 35.0606 25.1322 34.5444L24.2378 32.7556ZM21.0225 33.9399C19.7995 34.2456 18.4487 34.3887 16.9642 34.3602L16.9258 36.3598C18.5613 36.3913 20.0905 36.2344 21.5075 35.8801L21.0225 33.9399ZM16.9566 34.3601C14.4864 34.3313 12.3088 33.9011 10.4073 33.0902L9.62271 34.9298C11.8012 35.8589 14.2436 36.3287 16.9334 36.3599L16.9566 34.3601ZM10.4237 33.0973C8.52406 32.2467 6.90709 31.1192 5.56139 29.7175L4.11861 31.1025C5.65291 32.7008 7.48594 33.9733 9.60634 34.9227L10.4237 33.0973ZM5.57536 29.7323C4.25123 28.2955 3.23824 26.6637 2.53335 24.831L0.666655 25.549C1.46176 27.6163 2.60877 29.4645 4.10464 31.0877L5.57536 29.7323ZM2.53516 24.8358C1.83066 22.9759 1.475 20.9816 1.475 18.845H-0.525C-0.525 21.2084 -0.13066 23.4441 0.664841 25.5442L2.53516 24.8358ZM1.475 18.845C1.475 16.492 1.84774 14.348 2.58077 12.4026L0.709229 11.6974C-0.117737 13.892 -0.525 16.278 -0.525 18.845H1.475ZM2.57624 12.4144C3.3441 10.4521 4.39016 8.76023 5.71036 7.32768L4.23964 5.97232C2.73984 7.59976 1.5659 9.50789 0.713757 11.6856L2.57624 12.4144ZM5.7032 7.33536C7.04589 5.90875 8.64009 4.80275 10.4956 4.01558L9.71445 2.17442C7.60991 3.06725 5.78411 4.33124 4.2468 5.96463L5.7032 7.33536ZM10.4956 4.01558C12.3415 3.23244 14.3673 2.835 16.585 2.835V0.834998C14.1227 0.834998 11.8285 1.27755 9.71445 2.17442L10.4956 4.01558ZM16.585 2.835C18.564 2.835 20.311 3.1075 21.8385 3.63519L22.4915 1.74481C20.719 1.13249 18.746 0.834998 16.585 0.834998V2.835ZM21.8385 3.63519C23.4399 4.1884 24.7475 4.78927 25.7771 5.42928L26.8329 3.73071C25.6425 2.99073 24.1901 2.33159 22.4915 1.74481L21.8385 3.63519ZM25.3841 4.19009L23.2691 9.18509L25.1109 9.96491L27.2259 4.96991L25.3841 4.19009ZM24.7712 8.76127C23.8638 8.1131 22.7529 7.49733 21.4522 6.90889L20.6278 8.73111C21.8471 9.28266 22.8362 9.8369 23.6088 10.3887L24.7712 8.76127ZM21.4522 6.90889C20.0446 6.27215 18.4759 5.965 16.765 5.965V7.965C18.2341 7.965 19.5154 8.22784 20.6278 8.73111L21.4522 6.90889ZM16.765 5.965C14.6511 5.965 12.6804 6.54625 10.8731 7.69634L11.9469 9.38366C13.4396 8.43375 15.0389 7.965 16.765 7.965V5.965ZM10.8772 7.69377C9.11137 8.80558 7.69343 10.3091 6.62584 12.1855L8.36416 13.1745C9.27658 11.5709 10.4686 10.3144 11.9428 9.38623L10.8772 7.69377ZM6.62584 12.1855C5.54217 14.0901 5.01 16.2283 5.01 18.575H7.01C7.01 16.5417 7.46783 14.7499 8.36416 13.1745L6.62584 12.1855ZM5.01 18.575C5.01 20.9614 5.48821 23.1301 6.46862 25.0582L8.25139 24.1518C7.43179 22.5399 7.01 20.6886 7.01 18.575H5.01ZM6.47178 25.0644C7.45408 26.9635 8.85361 28.4794 10.6592 29.5956L11.7108 27.8944C10.2164 26.9706 9.06592 25.7265 8.24822 24.1456L6.47178 25.0644ZM10.6773 29.6065C12.5315 30.6992 14.6616 31.23 17.035 31.23V29.23C14.9684 29.23 13.1985 28.7708 11.6927 27.8835L10.6773 29.6065ZM17.035 31.23C18.8417 31.23 20.4596 30.9609 21.8652 30.3919L21.1148 28.5381C20.0004 28.9891 18.6483 29.23 17.035 29.23V31.23ZM21.8761 30.3874C23.2295 29.8209 24.3537 29.1698 25.2106 28.4157L23.8894 26.9143C23.2463 27.4802 22.3305 28.0291 21.1039 28.5426L21.8761 30.3874ZM23.6456 28.0916L25.8956 32.8616L27.7044 32.0084L25.4544 27.2384L23.6456 28.0916ZM30.3241 35L29.4041 34.608L28.8109 36H30.3241V35ZM44.8591 0.889999V-0.110001H44.1982L43.9391 0.497985L44.8591 0.889999ZM45.1741 0.889999L46.094 0.497985L45.8349 -0.110001H45.1741V0.889999ZM59.7091 35V36H61.2222L60.629 34.608L59.7091 35ZM53.5441 35L52.6133 35.3655L52.8624 36H53.5441V35ZM43.4191 9.215L42.8621 8.38446L42.1944 8.8322L42.4883 9.5805L43.4191 9.215ZM47.2441 6.65L48.169 7.03023L49.4202 3.98668L46.6871 5.81945L47.2441 6.65ZM35.5891 35V36H36.2592L36.514 35.3802L35.5891 35ZM39.5041 22.85V21.85H38.7989L38.5621 22.5143L39.5041 22.85ZM50.6191 22.85L51.5456 22.4739L51.2924 21.85H50.6191V22.85ZM52.4641 27.395V28.395H53.9493L53.3906 27.0189L52.4641 27.395ZM37.8841 27.395L36.9421 27.0593L36.466 28.395H37.8841V27.395ZM31.244 35.392L45.779 1.28201L43.9391 0.497985L29.4041 34.608L31.244 35.392ZM44.8591 1.89H45.1741V-0.110001H44.8591V1.89ZM44.2541 1.28201L58.7891 35.392L60.629 34.608L46.094 0.497985L44.2541 1.28201ZM59.7091 34H53.5441V36H59.7091V34ZM54.4749 34.6345L44.3499 8.8495L42.4883 9.5805L52.6133 35.3655L54.4749 34.6345ZM43.976 10.0455L47.801 7.48054L46.6871 5.81945L42.8621 8.38446L43.976 10.0455ZM46.3192 6.26976L34.6642 34.6198L36.514 35.3802L48.169 7.03023L46.3192 6.26976ZM35.5891 34H30.3241V36H35.5891V34ZM39.5041 23.85H50.6191V21.85H39.5041V23.85ZM49.6925 23.2261L51.5375 27.7711L53.3906 27.0189L51.5456 22.4739L49.6925 23.2261ZM52.4641 26.395H37.8841V28.395H52.4641V26.395ZM38.826 27.7307L40.446 23.1857L38.5621 22.5143L36.9421 27.0593L38.826 27.7307ZM83.3439 5.03L82.6749 5.77332L82.6809 5.77859L83.3439 5.03ZM85.8639 16.685L84.913 16.3754L84.9098 16.3855L84.9067 16.3956L85.8639 16.685ZM83.9739 20.24L83.1951 19.6127L83.193 19.6153L83.9739 20.24ZM80.5539 22.76L80.1531 21.8438L80.146 21.847L80.5539 22.76ZM70.5639 23.705V22.705H69.5639V23.705H70.5639ZM70.5639 35V36H71.5639V35H70.5639ZM65.2539 35H64.2539V36H65.2539V35ZM65.2539 2.195V1.195H64.2539V2.195H65.2539ZM78.1689 17.945L78.6161 18.8394L78.6161 18.8394L78.1689 17.945ZM79.9689 16.505L79.1689 15.905L79.1639 15.9118L79.9689 16.505ZM80.9139 14.615L79.9491 14.3519L79.9491 14.3519L80.9139 14.615ZM80.9139 11.195L79.9388 11.4166L79.9449 11.4434L79.9524 11.4697L80.9139 11.195ZM80.0589 9.35L80.864 8.7568L80.864 8.7568L80.0589 9.35ZM78.3039 7.91L78.7653 7.02278L78.7653 7.02278L78.3039 7.91ZM70.5639 7.325V6.325H69.5639V7.325H70.5639ZM70.5639 18.53H69.5639V19.53H70.5639V18.53ZM74.5689 3.195C78.1542 3.195 80.8118 4.09642 82.6749 5.77329L84.0129 4.28671C81.6761 2.18358 78.4836 1.195 74.5689 1.195V3.195ZM82.6809 5.77859C84.5283 7.41488 85.4939 9.7008 85.4939 12.77H87.4939C87.4939 9.2392 86.3595 6.36512 84.0069 4.28141L82.6809 5.77859ZM85.4939 12.77C85.4939 13.9819 85.3014 15.1826 84.913 16.3754L86.8148 16.9946C87.2664 15.6074 87.4939 14.198 87.4939 12.77H85.4939ZM84.9067 16.3956C84.555 17.5589 83.9869 18.6298 83.1952 19.6127L84.7527 20.8673C85.7009 19.6902 86.3928 18.3911 86.8211 16.9744L84.9067 16.3956ZM83.193 19.6153C82.4701 20.519 81.4698 21.2678 80.1531 21.8438L80.9547 23.6762C82.518 22.9922 83.7977 22.061 84.7548 20.8647L83.193 19.6153ZM80.146 21.847C78.9001 22.4037 77.3087 22.705 75.3339 22.705V24.705C77.4992 24.705 79.3877 24.3763 80.9618 23.673L80.146 21.847ZM75.3339 22.705H70.5639V24.705H75.3339V22.705ZM69.5639 23.705V35H71.5639V23.705H69.5639ZM70.5639 34H65.2539V36H70.5639V34ZM66.2539 35V2.195H64.2539V35H66.2539ZM65.2539 3.195H74.5689V1.195H65.2539V3.195ZM75.2889 19.53C76.5382 19.53 77.6613 19.3168 78.6161 18.8394L77.7217 17.0506C77.1165 17.3532 76.3196 17.53 75.2889 17.53V19.53ZM78.6161 18.8394C79.5053 18.3948 80.2409 17.8216 80.774 17.0982L79.1639 15.9118C78.8569 16.3284 78.3925 16.7152 77.7217 17.0506L78.6161 18.8394ZM80.7689 17.105C81.2873 16.4138 81.6624 15.671 81.8787 14.8781L79.9491 14.3519C79.8054 14.879 79.5505 15.3962 79.1689 15.905L80.7689 17.105ZM81.8787 14.8781C82.073 14.1655 82.1839 13.5027 82.1839 12.905H80.1839C80.1839 13.2673 80.1148 13.7445 79.9491 14.3519L81.8787 14.8781ZM82.1839 12.905C82.1839 12.2801 82.0741 11.6156 81.8754 10.9203L79.9524 11.4697C80.1137 12.0344 80.1839 12.5099 80.1839 12.905H82.1839ZM81.889 10.9734C81.7071 10.173 81.3618 9.43242 80.864 8.7568L79.2539 9.9432C79.596 10.4076 79.8207 10.897 79.9388 11.4166L81.889 10.9734ZM80.864 8.7568C80.3374 8.04222 79.6248 7.46972 78.7653 7.02278L77.8426 8.79721C78.4831 9.13027 78.9404 9.51778 79.2539 9.9432L80.864 8.7568ZM78.7653 7.02278C77.8319 6.53743 76.7161 6.325 75.4689 6.325V8.325C76.5018 8.325 77.2759 8.50257 77.8426 8.79721L78.7653 7.02278ZM75.4689 6.325H70.5639V8.325H75.4689V6.325ZM69.5639 7.325V18.53H71.5639V7.325H69.5639ZM70.5639 19.53H75.2889V17.53H70.5639V19.53ZM110.087 8.99L109.622 9.8754L110.537 10.3559L110.987 9.4253L110.087 8.99ZM106.307 7.415L105.977 8.3592L105.99 8.36374L106.003 8.36792L106.307 7.415ZM98.7466 7.82L99.3424 8.6231L99.3506 8.61699L99.3587 8.61072L98.7466 7.82ZM98.2966 13.085L97.5732 13.7755L97.5812 13.7839L97.5895 13.7921L98.2966 13.085ZM100.817 14.84L100.369 15.7344L100.369 15.7344L100.817 14.84ZM104.057 16.235L103.711 17.1734L103.715 17.1748L104.057 16.235ZM107.882 18.08L107.361 18.9338L107.373 18.9412L107.385 18.9482L107.882 18.08ZM110.942 21.05L110.091 21.5764L110.099 21.5883L110.106 21.6L110.942 21.05ZM110.852 30.725L111.703 31.2501L111.707 31.2421L110.852 30.725ZM107.117 34.1L107.577 34.9878L107.577 34.9878L107.117 34.1ZM95.2816 34.415L94.9519 35.3591L94.9608 35.3622L94.9698 35.3652L95.2816 34.415ZM90.1966 31.895L89.3277 31.3999L88.8703 32.2025L89.6343 32.7219L90.1966 31.895ZM92.5816 27.71L93.1816 26.91L92.2743 26.2295L91.7127 27.2149L92.5816 27.71ZM96.4516 29.825L96.0802 30.7535L96.0913 30.7579L96.1025 30.7621L96.4516 29.825ZM103.472 30.23L103.155 29.2813L103.155 29.2813L103.472 30.23ZM105.722 28.745L104.967 28.0888L104.967 28.0888L105.722 28.745ZM105.812 23.66L105.02 24.2714L105.029 24.2825L105.038 24.2932L105.812 23.66ZM103.742 21.95L103.245 22.8182L103.252 22.822L103.258 22.8256L103.742 21.95ZM100.997 20.645L101.363 19.7145L101.354 19.7109L100.997 20.645ZM97.8466 19.34L97.4308 20.2495L97.4404 20.2538L97.8466 19.34ZM94.9216 17.585L94.2969 18.3659L94.3049 18.3723L94.3131 18.3786L94.9216 17.585ZM92.7166 14.975L91.8376 15.4521L91.8436 15.4628L92.7166 14.975ZM93.1216 6.47L93.9653 7.0069L93.9706 6.9983L93.1216 6.47ZM96.6316 3.32L97.0788 4.21442L97.0859 4.21088L97.0929 4.20721L96.6316 3.32ZM101.762 2.015V1.015H101.738L101.715 1.0161L101.762 2.015ZM107.702 2.87L107.37 3.81333L107.375 3.81519L107.702 2.87ZM112.067 4.895L112.967 5.3303L113.359 4.51904L112.593 4.04473L112.067 4.895ZM110.551 8.1046C109.298 7.44681 107.984 6.89942 106.61 6.46207L106.003 8.36792C107.269 8.77058 108.475 9.27318 109.622 9.8754L110.551 8.1046ZM106.636 6.4708C105.255 5.98891 103.898 5.74 102.572 5.74V7.74C103.645 7.74 104.779 7.94109 105.977 8.3592L106.636 6.4708ZM102.572 5.74C100.812 5.74 99.2952 6.13058 98.1344 7.02927L99.3587 8.61072C100.058 8.06942 101.091 7.74 102.572 7.74V5.74ZM98.1507 7.0169C96.9348 7.91901 96.3516 9.22499 96.3516 10.79H98.3516C98.3516 9.775 98.6983 9.10099 99.3424 8.6231L98.1507 7.0169ZM96.3516 10.79C96.3516 11.9307 96.7752 12.9395 97.5732 13.7755L99.0199 12.3945C98.5579 11.9105 98.3516 11.3893 98.3516 10.79H96.3516ZM97.5895 13.7921C98.3402 14.5428 99.2738 15.1866 100.369 15.7344L101.264 13.9456C100.319 13.4734 99.573 12.9472 99.0037 12.3779L97.5895 13.7921ZM100.369 15.7344C101.424 16.262 102.538 16.7414 103.711 17.1733L104.402 15.2967C103.295 14.8886 102.249 14.438 101.264 13.9456L100.369 15.7344ZM103.715 17.1748C104.971 17.6316 106.186 18.2174 107.361 18.9338L108.402 17.2262C107.117 16.4426 105.782 15.7984 104.398 15.2952L103.715 17.1748ZM107.385 18.9482C108.498 19.5838 109.397 20.4549 110.091 21.5764L111.792 20.5236C110.926 19.1251 109.786 18.0162 108.378 17.2118L107.385 18.9482ZM110.106 21.6C110.773 22.613 111.157 24.0493 111.157 26H113.157C113.157 23.8106 112.73 21.947 111.777 20.5L110.106 21.6ZM111.157 26C111.157 27.5309 110.77 28.9266 109.996 30.2079L111.707 31.2421C112.673 29.6434 113.157 27.8891 113.157 26H111.157ZM110.001 30.1999C109.235 31.4406 108.132 32.4468 106.656 33.2122L107.577 34.9878C109.341 34.0732 110.728 32.8294 111.703 31.2501L110.001 30.1999ZM106.656 33.2122C105.213 33.9606 103.4 34.36 101.177 34.36V36.36C103.633 36.36 105.78 35.9194 107.577 34.9878L106.656 33.2122ZM101.177 34.36C99.273 34.36 97.4133 34.062 95.5933 33.4648L94.9698 35.3652C96.9899 36.028 99.0601 36.36 101.177 36.36V34.36ZM95.6112 33.4709C93.7951 32.8367 92.1798 32.0343 90.7589 31.0681L89.6343 32.7219C91.2134 33.7957 92.988 34.6733 94.9519 35.3591L95.6112 33.4709ZM91.0654 32.3901L93.4504 28.2051L91.7127 27.2149L89.3277 31.3999L91.0654 32.3901ZM91.9816 28.51C93.144 29.3818 94.5141 30.1271 96.0802 30.7535L96.823 28.8965C95.389 28.3229 94.1792 27.6582 93.1816 26.91L91.9816 28.51ZM96.1025 30.7621C97.7157 31.3631 99.2454 31.68 100.682 31.68V29.68C99.5377 29.68 98.2474 29.4269 96.8007 28.8879L96.1025 30.7621ZM100.682 31.68C101.748 31.68 102.785 31.5131 103.788 31.1787L103.155 29.2813C102.359 29.5469 101.535 29.68 100.682 29.68V31.68ZM103.788 31.1787C104.851 30.8244 105.754 30.2313 106.476 29.4012L104.967 28.0888C104.489 28.6387 103.892 29.0356 103.155 29.2813L103.788 31.1787ZM106.476 29.4012C107.271 28.4875 107.622 27.3195 107.622 26H105.622C105.622 26.9605 105.372 27.6225 104.967 28.0888L106.476 29.4012ZM107.622 26C107.622 24.883 107.28 23.8758 106.586 23.0268L105.038 24.2932C105.423 24.7642 105.622 25.317 105.622 26H107.622ZM106.603 23.0486C105.995 22.2617 105.192 21.6081 104.225 21.0744L103.258 22.8256C104.031 23.2519 104.608 23.7383 105.02 24.2714L106.603 23.0486ZM104.238 21.0818C103.352 20.5757 102.393 20.1205 101.363 19.7146L100.63 21.5754C101.58 21.9495 102.451 22.3643 103.245 22.8182L104.238 21.0818ZM101.354 19.7109C100.351 19.3277 99.3179 18.8996 98.2527 18.4262L97.4404 20.2538C98.5353 20.7404 99.6016 21.1822 100.639 21.5791L101.354 19.7109ZM98.2623 18.4305C97.2795 17.9812 96.3693 17.4348 95.53 16.7914L94.3131 18.3786C95.2739 19.1152 96.3137 19.7388 97.4308 20.2495L98.2623 18.4305ZM95.5463 16.8041C94.7486 16.166 94.0974 15.396 93.5895 14.4872L91.8436 15.4628C92.4758 16.594 93.2945 17.564 94.2969 18.3659L95.5463 16.8041ZM93.5954 14.4979C93.1212 13.6244 92.8616 12.5363 92.8616 11.195H90.8616C90.8616 12.7937 91.1719 14.2256 91.8377 15.4521L93.5954 14.4979ZM92.8616 11.195C92.8616 9.52234 93.2436 8.1408 93.9652 7.00688L92.2779 5.93312C91.3195 7.4392 90.8616 9.20766 90.8616 11.195H92.8616ZM93.9706 6.9983C94.7076 5.81384 95.7345 4.88656 97.0788 4.21442L96.1843 2.42557C94.5286 3.25344 93.2155 4.42616 92.2725 5.9417L93.9706 6.9983ZM97.0929 4.20721C98.448 3.5026 100.013 3.09805 101.808 3.0139L101.715 1.0161C99.6699 1.11195 97.8152 1.5774 96.1702 2.43278L97.0929 4.20721ZM101.762 3.015C104.027 3.015 105.887 3.29169 107.37 3.81331L108.033 1.92669C106.276 1.3083 104.176 1.015 101.762 1.015V3.015ZM107.375 3.81519C108.967 4.36518 110.353 5.01036 111.54 5.74526L112.593 4.04473C111.26 3.21964 109.736 2.51481 108.028 1.92481L107.375 3.81519ZM111.166 4.4597L109.186 8.5547L110.987 9.4253L112.967 5.3303L111.166 4.4597ZM124.803 26.675L123.95 27.1965L123.956 27.2072L124.803 26.675ZM127.458 29.24L126.947 30.0995L126.96 30.1076L126.974 30.1152L127.458 29.24ZM135.063 29.24L135.557 30.1097L135.564 30.1054L135.063 29.24ZM137.763 26.675L138.61 27.2072L138.616 27.1965L137.763 26.675ZM138.753 2.195V1.195H137.753V2.195H138.753ZM143.973 2.195H144.973V1.195H143.973V2.195ZM142.263 29.6L143.108 30.1351L143.112 30.1287L142.263 29.6ZM137.628 33.83L137.164 32.9439L137.159 32.9469L137.628 33.83ZM124.758 33.83L124.289 34.7131L124.294 34.7161L124.758 33.83ZM120.168 29.6L119.313 30.1186L119.318 30.1269L119.323 30.1351L120.168 29.6ZM118.503 2.195V1.195H117.503V2.195H118.503ZM123.813 2.195H124.813V1.195H123.813V2.195ZM122.813 23.165C122.813 24.6099 123.194 25.9602 123.95 27.1964L125.656 26.1536C125.092 25.2298 124.813 24.2401 124.813 23.165H122.813ZM123.956 27.2072C124.704 28.3969 125.706 29.362 126.947 30.0995L127.969 28.3805C126.989 27.798 126.222 27.0531 125.65 26.1428L123.956 27.2072ZM126.974 30.1152C128.268 30.8301 129.68 31.185 131.193 31.185V29.185C130.006 29.185 128.928 28.9099 127.942 28.3648L126.974 30.1152ZM131.193 31.185C132.809 31.185 134.275 30.8373 135.557 30.1097L134.569 28.3703C133.631 28.9027 132.517 29.185 131.193 29.185V31.185ZM135.564 30.1054C136.836 29.3693 137.858 28.4032 138.61 27.2072L136.916 26.1428C136.348 27.0468 135.57 27.7907 134.562 28.3746L135.564 30.1054ZM138.616 27.1965C139.372 25.9602 139.753 24.6099 139.753 23.165H137.753C137.753 24.2401 137.474 25.2298 136.91 26.1535L138.616 27.1965ZM139.753 23.165V2.195H137.753V23.165H139.753ZM138.753 3.195H143.973V1.195H138.753V3.195ZM142.973 2.195V23.3H144.973V2.195H142.973ZM142.973 23.3C142.973 25.5023 142.446 27.4154 141.414 29.0713L143.112 30.1287C144.36 28.1246 144.973 25.8377 144.973 23.3H142.973ZM141.418 29.0649C140.375 30.7114 138.964 32.0026 137.164 32.9439L138.091 34.7161C140.192 33.6174 141.871 32.0886 143.108 30.1351L141.418 29.0649ZM137.159 32.9469C135.396 33.8834 133.414 34.36 131.193 34.36V36.36C133.711 36.36 136.02 35.8166 138.097 34.7131L137.159 32.9469ZM131.193 34.36C129.004 34.36 127.019 33.8844 125.221 32.9439L124.294 34.7161C126.397 35.8156 128.702 36.36 131.193 36.36V34.36ZM125.227 32.9469C123.457 32.0066 122.058 30.7152 121.013 29.0649L119.323 30.1351C120.558 32.0848 122.219 33.6134 124.289 34.7131L125.227 32.9469ZM121.023 29.0814C120.018 27.4242 119.503 25.5073 119.503 23.3H117.503C117.503 25.8327 118.098 28.1158 119.313 30.1186L121.023 29.0814ZM119.503 23.3V2.195H117.503V23.3H119.503ZM118.503 3.195H123.813V1.195H118.503V3.195ZM122.813 2.195V23.165H124.813V2.195H122.813ZM152.441 2.195V1.195H151.441V2.195H152.441ZM157.751 2.195H158.751V1.195H157.751V2.195ZM157.751 29.87H156.751V30.87H157.751V29.87ZM173.861 29.87H174.861V28.87H173.861V29.87ZM173.861 35V36H174.861V35H173.861ZM152.441 35H151.441V36H152.441V35ZM152.441 3.195H157.751V1.195H152.441V3.195ZM156.751 2.195V29.87H158.751V2.195H156.751ZM157.751 30.87H173.861V28.87H157.751V30.87ZM172.861 29.87V35H174.861V29.87H172.861ZM173.861 34H152.441V36H173.861V34ZM153.441 35V2.195H151.441V35H153.441ZM180.786 2.195V1.195H179.786V2.195H180.786ZM202.566 2.195H203.566V1.195H202.566V2.195ZM202.566 7.325V8.325H203.566V7.325H202.566ZM186.096 7.325V6.325H185.096V7.325H186.096ZM186.096 15.965H185.096V16.965H186.096V15.965ZM200.766 15.965H201.766V14.965H200.766V15.965ZM200.766 21.095V22.095H201.766V21.095H200.766ZM186.096 21.095V20.095H185.096V21.095H186.096ZM186.096 29.87H185.096V30.87H186.096V29.87ZM203.196 29.87H204.196V28.87H203.196V29.87ZM203.196 35V36H204.196V35H203.196ZM180.786 35H179.786V36H180.786V35ZM180.786 3.195H202.566V1.195H180.786V3.195ZM201.566 2.195V7.325H203.566V2.195H201.566ZM202.566 6.325H186.096V8.325H202.566V6.325ZM185.096 7.325V15.965H187.096V7.325H185.096ZM186.096 16.965H200.766V14.965H186.096V16.965ZM199.766 15.965V21.095H201.766V15.965H199.766ZM200.766 20.095H186.096V22.095H200.766V20.095ZM185.096 21.095V29.87H187.096V21.095H185.096ZM186.096 30.87H203.196V28.87H186.096V30.87ZM202.196 29.87V35H204.196V29.87H202.196ZM203.196 34H180.786V36H203.196V34ZM181.786 35V2.195H179.786V35H181.786Z" fill="white" mask="url(#path-1-outside-1_80_7)"/>
</svg>
