<svg width="204" height="36" viewBox="0 0 204 36" fill="none" xmlns="http://www.w3.org/2000/svg">
<path d="M26.8 32.435C26.35 32.765 25.645 33.17 24.685 33.65C23.725 34.13 22.585 34.55 21.265 34.91C19.945 35.24 18.505 35.39 16.945 35.36C14.365 35.33 12.055 34.88 10.015 34.01C8.005 33.11 6.28 31.91 4.84 30.41C3.43 28.88 2.35 27.14 1.6 25.19C0.85 23.21 0.475 21.095 0.475 18.845C0.475 16.385 0.865 14.12 1.645 12.05C2.455 9.98 3.565 8.18 4.975 6.65C6.415 5.12 8.125 3.935 10.105 3.095C12.085 2.255 14.245 1.835 16.585 1.835C18.655 1.835 20.515 2.12 22.165 2.69C23.815 3.26 25.195 3.89 26.305 4.58L24.19 9.575C23.35 8.975 22.3 8.39 21.04 7.82C19.78 7.25 18.355 6.965 16.765 6.965C14.845 6.965 13.06 7.49 11.41 8.54C9.79 9.56 8.485 10.94 7.495 12.68C6.505 14.42 6.01 16.385 6.01 18.575C6.01 20.825 6.46 22.835 7.36 24.605C8.26 26.345 9.535 27.725 11.185 28.745C12.865 29.735 14.815 30.23 17.035 30.23C18.745 30.23 20.23 29.975 21.49 29.465C22.78 28.925 23.8 28.325 24.55 27.665L26.8 32.435ZM30.3241 35L44.8591 0.889999H45.1741L59.7091 35H53.5441L43.4191 9.215L47.2441 6.65L35.5891 35H30.3241ZM39.5041 22.85H50.6191L52.4641 27.395H37.8841L39.5041 22.85ZM74.5689 2.195C78.3189 2.195 81.2439 3.14 83.3439 5.03C85.4439 6.89 86.4939 9.47 86.4939 12.77C86.4939 14.09 86.2839 15.395 85.8639 16.685C85.4739 17.975 84.8439 19.16 83.9739 20.24C83.1339 21.29 81.9939 22.13 80.5539 22.76C79.1439 23.39 77.4039 23.705 75.3339 23.705H70.5639V35H65.2539V2.195H74.5689ZM75.2889 18.53C76.4289 18.53 77.3889 18.335 78.1689 17.945C78.9489 17.555 79.5489 17.075 79.9689 16.505C80.4189 15.905 80.7339 15.275 80.9139 14.615C81.0939 13.955 81.1839 13.385 81.1839 12.905C81.1839 12.395 81.0939 11.825 80.9139 11.195C80.7639 10.535 80.4789 9.92 80.0589 9.35C79.6389 8.78 79.0539 8.3 78.3039 7.91C77.5539 7.52 76.6089 7.325 75.4689 7.325H70.5639V18.53H75.2889ZM110.087 8.99C108.887 8.36 107.627 7.835 106.307 7.415C105.017 6.965 103.772 6.74 102.572 6.74C100.952 6.74 99.6766 7.1 98.7466 7.82C97.8166 8.51 97.3516 9.5 97.3516 10.79C97.3516 11.66 97.6666 12.425 98.2966 13.085C98.9566 13.745 99.7966 14.33 100.817 14.84C101.837 15.35 102.917 15.815 104.057 16.235C105.377 16.715 106.652 17.33 107.882 18.08C109.142 18.8 110.162 19.79 110.942 21.05C111.752 22.28 112.157 23.93 112.157 26C112.157 27.71 111.722 29.285 110.852 30.725C109.982 32.135 108.737 33.26 107.117 34.1C105.497 34.94 103.517 35.36 101.177 35.36C99.1666 35.36 97.2016 35.045 95.2816 34.415C93.3916 33.755 91.6966 32.915 90.1966 31.895L92.5816 27.71C93.6616 28.52 94.9516 29.225 96.4516 29.825C97.9816 30.395 99.3916 30.68 100.682 30.68C101.642 30.68 102.572 30.53 103.472 30.23C104.372 29.93 105.122 29.435 105.722 28.745C106.322 28.055 106.622 27.14 106.622 26C106.622 25.1 106.352 24.32 105.812 23.66C105.302 23 104.612 22.43 103.742 21.95C102.902 21.47 101.987 21.035 100.997 20.645C99.9766 20.255 98.9266 19.82 97.8466 19.34C96.7966 18.86 95.8216 18.275 94.9216 17.585C94.0216 16.865 93.2866 15.995 92.7166 14.975C92.1466 13.925 91.8616 12.665 91.8616 11.195C91.8616 9.365 92.2816 7.79 93.1216 6.47C93.9616 5.12 95.1316 4.07 96.6316 3.32C98.1316 2.54 99.8416 2.105 101.762 2.015C104.102 2.015 106.082 2.3 107.702 2.87C109.352 3.44 110.807 4.115 112.067 4.895L110.087 8.99ZM123.813 23.165C123.813 24.425 124.143 25.595 124.803 26.675C125.463 27.725 126.348 28.58 127.458 29.24C128.598 29.87 129.843 30.185 131.193 30.185C132.663 30.185 133.953 29.87 135.063 29.24C136.203 28.58 137.103 27.725 137.763 26.675C138.423 25.595 138.753 24.425 138.753 23.165V2.195H143.973V23.3C143.973 25.67 143.403 27.77 142.263 29.6C141.123 31.4 139.578 32.81 137.628 33.83C135.708 34.85 133.563 35.36 131.193 35.36C128.853 35.36 126.708 34.85 124.758 33.83C122.838 32.81 121.308 31.4 120.168 29.6C119.058 27.77 118.503 25.67 118.503 23.3V2.195H123.813V23.165ZM152.441 2.195H157.751V29.87H173.861V35H152.441V2.195ZM180.786 2.195H202.566V7.325H186.096V15.965H200.766V21.095H186.096V29.87H203.196V35H180.786V2.195Z" fill="#E5786D"/>
</svg>
